/* XPM */
static char *_537280107102[] = {
/* columns rows colors chars-per-pixel */
"64 64 46 1 ",
"  c #2E271E",
". c #352D23",
"X c #373026",
"o c #393126",
"O c #3D3529",
"+ c #3F382C",
"@ c #40372B",
"# c #42392D",
"$ c #463E30",
"% c #483F31",
"& c #464032",
"* c #4D4234",
"= c #514636",
"- c #534738",
"; c #564A3A",
": c #5A4E3C",
"> c #5D513F",
", c #584F40",
"< c #5E5341",
"1 c #625542",
"2 c #665945",
"3 c #695B46",
"4 c #675C48",
"5 c #6B5E49",
"6 c #6E614B",
"7 c #72634D",
"8 c #6F6550",
"9 c #746650",
"0 c #786750",
"q c #756952",
"w c #7C6B53",
"e c #7E6F58",
"r c #7F7057",
"t c #7E7058",
"y c #816E56",
"u c #817057",
"i c #84735A",
"p c #89765C",
"a c #87785E",
"s c #8B795E",
"d c #877A60",
"f c #8D7C61",
"g c #917E62",
"h c #8E8165",
"j c #938265",
"k c #938369",
/* pixels */
".oOOo@@@..o@@@#@OOOO@O#O%##@o.  .@##@@@o++##OoXXoXXo+++&oOo#OO+#",
"o;>:;:>::;::::;@#-:,2:,<4,:=-==oo:<<:;=;;;>>:-=oo=:<<;;;;;>>>;;O",
"#<123331373221>#O:18934472:::::##:3331:>14452<:@o>57945166866>-o",
"o;<yypyyypp0021@#,4dgdipfy00q<:#$:30py077psse3;@+16jfpwytasap1;o",
".;>0yyyywpsew21##>5pfeutpyw0q1:O#>5yyyy70pssy3:@#15ppuwshhhur<:@",
".%>3221146625>>+O:155422322655<$#1777731:11432>@+;>22<>276311>:@",
".%::;:>:><1>>>-+#:;:;;,<><,112<#%::;=;;>::;:>1;@o*>><;;;<:::;;=@",
".o@#@@@@+@++##+oO#+++Oooo+#$$%$O@@@oo@@@@@@@$#@.Xo+&#@@O@O@@@OO.",
"X@@#@@O.Xo@@@O##&*$+ooooo#@@@@##@@@.ooOOo@###@@.O#&&##@oo@#@OOOO",
":><<>>;Oo-::>><<2221<;=o@:>::1,::::;::-oo->:11-=;>>>11;@@::=;;:;",
":13521>@O;<2644633633:;#%2513565755562;oo:126311112231>@@:113367",
"ipppw2>#+*:0hhir0yyiu1;O$15wpsfhgpppp3;oo:1ypppyyyyyy1>@@;1ypppj",
"yyyyw<;OO*;0sjjp00yye1;O#26uppfkpiipp3:##110wdppyyppi3>@o;1yyppp",
"771252>o@=:1775622123>;O#<<1269q5::133<%$11335775322731oo;>31335",
"1>;:>>=.X*;::;:>:<::<:=OO:;:<<<<-=%:><:@@;;;;><1>>>111;@@;>;;>:>",
"#@@@##@XXo@@@XXo@@###@OXXOO++$++O.o@@$#@X@@##@@#&&&&&#@.o@@@@o@@",
"o@@@@@OO@@@@@ooXXO@@@@+OO$++O++o.oO$++OOo@@@@@OXo&&&##Ooo@&#+O++",
"o:11121111:::;*Xo=::>1>:<<<,:<<+o=;,,,,,;:>:;;=OO>>>>>;*=><>:;;&",
"@:231666576776<O@>3326665632<2<$#:,342412:21<:;O#>>11121368763>&",
"o:10rhassspsa61+#17sjhsppeuyi5<+#:2wu0tqy0iu0:*O#12yiuiuippsw6>&",
"O:>67wwrpppjh6>O#19hghpsiiiiy31##157wwfpi0igi1=o@;2wsupusppsu71#",
"O><16363321361:oO<5qq631331>131#@:11>11212777>=o@;1702<>3231361@",
"O=>>1>;*=;:>>;*Xo-<<<<:>1<:-;::@O-::;;:>>>112:=Oo&=>>;;*:;>>>1;O",
"oOOO#+OXXXO@#$+O.OOO+###$#OOo#@@oO##OOOOOo@OOOoo...oOOooO@@@#@Oo",
"@@Oo++O..O+&&&O#oOooo@#+O+++@@@@#@###O#OOO@O@O@@OX.XO@O.oO+++O##",
";:;==:;OX:>1>111<:;::>>#+;:>:>:;::<:;;:OO->>::;:;;;>11;@o=;;>>11",
"231113>+O>6q69662211>:;+O:<5353323552<<@O:6w06332147751@O=>66677",
"iyww61;+X;3aphppuppp01>+O=1pggyywwuee11#O:1ssjuw70usa5>@O=1isgsj",
"hu7761;OX;6sshipraue7>>oO;2ypppsrrrsp51#@;1sgsuuy00u01;@O=1uauus",
"61:<13>+O:1631<31655521Oo-1332351>>4565&@;;23776311111;@O=>>1136",
">;>;>><&+;>>>:;>>>><>:=.X=::==;:;;->:1>#o*;>1111>>=;:>;Oo*=;;;;:",
"OOOo#&&+OOXooOooo++#++o..o@@o.XXoooOX++O..o@@#$@@@#####..X@@oXo@",
".oOXOO&&&@oo@oooo+O@@@oooX+oo...o+++o+++O@#@@@@XX@#@$##@@o@#@@. ",
"X==*;:1>1<;*===@O;;>::;=;;:;***XO:42<:;;:::;:;;XO=<><>1:;;>>>;=o",
"@>>>660676313>;oo;;222322><::==O@<9qq6<6576651:@@:117676713371:@",
"&>36iihspuy7y3:@O:1uupppp0776>;@#28air960pssi1:O#>5ysjjspyppp7>@",
"&:26wupuy060y3>@O=17yyppp0008>=O@>5uir767ypsi2:@#26ijjjpy0yyy5:@",
"O;1<<16621:111;@O;223233612666>&+:114<>>;<252>;+#1277721>>>315:@",
".&=:<<>:;;;:;>;oO=:::::>>:>>>>;oo=>:1>:=&&->1;;O#>:><>::;-**;>;o",
"   O@@@#O@@@oo@@O@##@@OO&&&&&#OoXOOO+O@oXX+##@@oOOOO@Oo@@@o@@@@o",
"...oo@#@@@@@OO@#@@##@@ooO+#&&O@@O+o+++&oXX+O###O@###@##@@@@@@@@o",
";=*&=;:%@><1>:>>>1<<;;*O+>><>>>>>>:;><>++;>=><1>>>>>>>:@o=>>>;;-",
"11>121>@%11777336622>>:@#>1112111522666#&<4<2351132212>@o;>>>221",
"py0yy1:@@13pjjpsphpu0<;@#>3wwrw0usgss8<+#>6ryyyuyyu07>;@o=>7yyiy",
"sippi2;@#13ijjsppgpi01:##>20w0w0ephja6>+#16uiyyyupsyy>;@@;;7yppp",
"075373>Oo;1137711333><>@@;112165326qq4:O@>21>1155731>>:@@;>23370",
";>>;>>=o.=;=;>>;;:;;;;;@O=>>;;>>:;><1:=XO;:>>1::>>>>:>>#@=>>>>11",
"ooOOoOO..o@O@@Oo@o@@o@@ooO#OOo@@@O+@&++oO@@@@##@XOOOo@#ooo@@oo@#",
"o@@Oo.o.o@@@@OO.o@$#$#+OO#$#Ooo..o##OoOO@@###%O..@@@oo++ooooo.oX",
"@;;;*=;;;;>1>:*oO;2<1:>-:>211;;OO=:::::<>>::><=oO=>;;*:::=*;;;=X",
"o>13112111331:=O@>759561257652>@.->3322112<111=o@>621>164>>552;o",
"@11yyspy0yyuy>%oO:5yffdtiiyia71#O:1ydfiiysiy7:=oO;5wiiipquusi71@",
"#120ysjpyyppy:* .:5yspsiiiypy3>@O:20iiywysgsu>:oO;1rsiw0ypipy5<#",
"&1221231>3331;= .*<1221112213::@#;113>11377751;oo;>666>>;12331:#",
"O=;;;:>::>>:::= .*:==;=;;>:;;-:o#-<;:===;>111:=oo;>34>>-==;:;;=o",
".oOOOOOO@#OOO@O..oo@o@@@@@@@@@@@+#$O@ooo@###O#Ooo@#####+o@@#@oXX",
"o@@@@@@oO@@@@@@Oo@@@o@ooo@##+++#&&#OOOOXO##++#@@@+@@###o.o@@@.o@",
"=:11>:%oO=:=;=;;;>>>::;@O;12<:-><<>:<<;O+<24<<:1>>;;;>>#@=1>:=-%",
"13353:=@@;>:313335652:=oO:144666522552,@#267895775>1>4>#@;112>21",
"3yyyy:;@@:1yypyypsspy2;@O;1eadhhidpfi3:Oo:6fkhfsgiw0721##>10yyyy",
"yyyyy>:#@>1yyyyypipiy2;Oo>2rpffkigsgi<=.o:5issgppirq031$%12yyy00",
"113:331@%111333>536331:@@266234637773>=XX*>355542264312*%>12>32:",
":;:;11:@@:>:=;;;>>1<:<-O@<1>:::11:>1::*XX*>>:;;>;>>;;:1#@;>>11<:",
"oO@@#%@oo@@@o@@@@#@###OOO@@+@@#$%#@##@@o.o+#+Oo+##+o@@$@@oo@##%%"
};
